<?xml version="1.0" standalone="no"?>
<!DOCTYPE svg PUBLIC "-//W3C//DTD SVG 20010904//EN"
 "http://www.w3.org/TR/2001/REC-SVG-20010904/DTD/svg10.dtd">
<svg version="1.0" xmlns="http://www.w3.org/2000/svg"
 width="403.000000pt" height="403.000000pt" viewBox="0 0 403.000000 403.000000"
 preserveAspectRatio="xMidYMid meet">

<g transform="translate(0.000000,403.000000) scale(0.100000,-0.100000)"
fill="#000000" stroke="none">
<path d="M897 3898 c-37 -73 -87 -187 -112 -252 -78 -202 -155 -506 -155 -610
0 -25 -8 -90 -17 -144 -19 -111 -23 -354 -9 -614 9 -177 26 -230 26 -80 0 157
17 245 72 382 47 117 101 270 110 315 3 11 8 -11 11 -50 22 -238 29 -295 47
-380 15 -73 85 -306 117 -391 2 -6 -29 -23 -69 -39 -244 -94 -709 -372 -724
-432 -11 -42 4 -218 30 -370 24 -134 24 -145 10 -194 -18 -60 -25 -50 93 -138
48 -36 88 -72 91 -78 6 -22 -58 -15 -188 18 -66 17 -124 29 -127 26 -11 -12
-22 -93 -23 -164 l0 -73 -40 -25 -40 -25 0 -290 0 -290 2015 0 2015 0 0 1046
0 1046 -27 -7 c-90 -24 -93 -24 -97 -1 -19 92 -70 324 -74 336 -3 8 21 -14 54
-49 32 -36 78 -85 102 -110 l42 -46 -2 335 -3 335 -75 153 c-41 83 -72 152
-69 152 3 0 34 -36 69 -80 34 -44 67 -83 71 -86 5 -3 9 71 9 165 l0 169 -42
54 c-37 47 -29 51 13 6 9 -10 19 -18 23 -18 3 0 6 36 6 79 0 78 0 79 -47 142
-57 79 -207 229 -331 332 l-93 77 -1298 0 -1298 0 -66 -132z m1670 -185 c47
-61 154 -251 134 -239 -6 4 -11 2 -11 -3 0 -6 5 -11 10 -11 19 0 51 -64 45
-90 -4 -18 -3 -21 4 -11 8 12 12 9 21 -15 11 -27 38 -87 49 -108 2 -6 -76 -7
-195 -3 -109 4 -335 2 -502 -4 -176 -7 -307 -8 -312 -3 -5 5 -12 68 -16 139
-5 104 -4 128 6 118 7 -6 19 -9 27 -6 7 3 13 2 11 -3 -2 -5 2 -10 7 -11 6 -2
10 2 10 8 0 8 28 11 90 10 49 -1 91 -3 92 -5 1 -1 5 -28 7 -60 3 -32 6 -60 8
-62 5 -4 156 74 190 97 16 12 41 18 65 18 23 -1 29 -3 16 -6 -13 -2 -23 -9
-23 -15 0 -6 10 -8 24 -4 14 3 27 2 31 -3 3 -5 -5 -11 -17 -13 -38 -5 -30 -23
12 -25 22 -2 40 2 40 7 0 6 -4 10 -10 10 -5 0 -10 7 -10 15 0 10 10 15 28 15
18 0 23 3 14 9 -10 6 -7 10 12 13 15 3 29 1 32 -3 3 -5 11 -9 17 -9 8 0 7 3
-2 9 -17 11 117 35 159 29 25 -4 27 -2 19 13 -20 39 -65 59 -131 59 -34 0 -81
3 -103 7 -31 5 -35 8 -20 14 13 5 1 7 -35 7 -43 0 -50 -2 -30 -8 20 -7 16 -9
-20 -7 -26 1 -51 8 -61 18 -9 9 -23 19 -30 22 -12 5 -12 7 -1 15 8 5 16 28 19
51 4 28 11 41 22 42 9 0 11 3 4 5 -21 9 -53 -16 -53 -40 0 -20 -6 -24 -48 -29
-66 -8 -99 -25 -113 -58 -8 -20 -19 -29 -34 -29 -12 0 -25 -3 -29 -7 -11 -11
-80 -33 -106 -33 -14 0 -40 -9 -57 -20 -27 -16 -33 -17 -33 -5 0 8 8 16 18 16
16 1 16 2 -1 6 -14 4 -16 8 -6 19 6 7 16 11 21 7 6 -3 8 0 6 8 -3 8 -11 13
-17 12 -14 -4 -14 2 0 69 6 29 13 63 15 76 l4 22 354 0 354 0 29 -37z m-387
-80 c-46 -17 -79 -36 -74 -44 3 -5 -5 -9 -17 -9 -22 0 -22 1 -4 20 18 20 64
38 95 38 13 0 13 0 0 -5z m40 -43 c11 -7 1 -10 -35 -10 -36 0 -46 3 -35 10 8
5 24 10 35 10 11 0 27 -5 35 -10z m-191 -34 c-2 -2 -17 -6 -34 -10 -22 -5 -26
-4 -15 4 14 9 59 15 49 6z m76 -6 c3 -5 -3 -10 -14 -10 -12 0 -21 5 -21 10 0
6 6 10 14 10 8 0 18 -4 21 -10z m145 3 c0 -5 -27 -9 -60 -10 -33 -1 -60 2 -60
7 0 6 27 10 60 10 33 0 60 -3 60 -7z m175 -3 c21 -5 4 -8 -57 -9 -53 -1 -88 3
-88 9 0 11 100 11 145 0z m-385 -38 c0 -5 -26 -7 -57 -5 -84 6 -88 11 -10 12
37 1 67 -3 67 -7z m80 -2 c0 -5 -9 -10 -19 -10 -11 0 -23 5 -26 10 -4 6 5 10
19 10 14 0 26 -4 26 -10z m63 3 c-7 -2 -19 -2 -25 0 -7 3 -2 5 12 5 14 0 19
-2 13 -5z m272 -7 c-35 -9 -52 -9 -57 -2 -5 7 -8 7 -8 -1 0 -9 -19 -13 -60
-13 -49 0 -58 3 -54 15 5 12 27 15 118 14 109 -1 110 -2 61 -13z m-209 -3 c-3
-4 -17 -8 -29 -10 -17 -2 -19 -1 -7 7 17 11 47 14 36 3z m-61 -33 c30 -2 30
-2 5 -10 -37 -12 -44 -11 -66 5 -18 14 -18 15 6 11 14 -3 39 -5 55 -6z m-67
-57 c-36 -20 -48 -16 -48 17 l0 30 35 -17 c35 -17 35 -17 13 -30z m831 -132
c37 -53 38 -61 6 -61 -20 0 -26 7 -35 43 -6 23 -14 51 -17 62 -7 25 4 15 46
-44z m-290 -146 c-3 -2 -48 -20 -102 -39 -53 -19 -116 -48 -141 -66 -40 -27
-46 -35 -46 -67 l0 -36 63 60 c53 51 78 66 178 105 111 45 119 46 184 40 l68
-7 18 -52 18 -53 -42 0 c-23 0 -73 -9 -112 -20 -38 -11 -105 -29 -149 -40 -43
-10 -96 -31 -118 -46 -52 -37 -58 -48 -18 -39 30 7 31 6 20 -15 -19 -36 -4
-34 25 4 30 39 55 47 55 17 0 -11 3 -26 6 -35 4 -11 0 -16 -14 -16 -11 0 -30
-9 -43 -21 -21 -18 -21 -20 -4 -14 26 10 102 14 239 16 77 1 105 4 93 11 -13
7 -16 16 -11 31 6 21 6 21 -12 6 -37 -31 -47 -34 -34 -8 7 12 15 45 19 73 5
42 10 52 28 54 18 3 22 -2 25 -30 l4 -33 19 32 c11 18 23 33 27 33 3 0 11 -15
17 -32 27 -86 35 -174 35 -363 0 -152 2 -189 9 -155 6 25 10 165 11 312 1 229
3 268 16 272 9 2 6 4 -6 5 -18 1 -23 9 -26 44 -3 23 -3 44 -2 46 2 2 40 -7 85
-19 l82 -24 -6 -200 c-8 -236 -13 -270 -68 -436 -56 -169 -133 -327 -209 -430
-81 -111 -325 -352 -417 -413 -108 -72 -134 -80 -233 -75 -103 5 -163 33 -297
141 -148 118 -153 124 -153 179 0 26 3 48 8 48 4 0 17 -15 29 -33 29 -42 59
-74 111 -119 64 -57 71 -46 12 19 -73 80 -150 201 -150 238 0 33 -3 36 78 -70
60 -80 182 -207 182 -191 0 5 -10 23 -23 40 -63 84 -121 214 -162 368 -80 295
-115 545 -115 818 l1 125 43 -125 c53 -155 75 -204 134 -305 69 -120 182 -269
182 -241 0 4 -11 22 -24 39 -35 47 -90 160 -126 262 -33 94 -93 326 -86 333 7
7 179 -89 209 -116 l27 -26 0 30 c0 41 -7 47 -80 74 -36 12 -81 31 -100 41
-19 9 -44 20 -55 24 -17 5 -17 8 -5 14 38 20 847 75 829 56z m664 -322 c17
-19 19 -32 15 -90 -6 -84 -35 -146 -96 -210 -49 -50 -133 -99 -156 -90 -9 4
-12 15 -8 32 3 20 23 39 71 70 108 70 158 135 168 214 5 43 3 50 -16 61 -22
11 -22 11 -7 -12 13 -21 13 -28 -3 -74 -22 -66 -53 -103 -126 -152 -33 -22
-61 -39 -62 -38 -1 1 11 28 27 61 16 33 30 65 30 70 1 21 30 47 67 61 l38 15
-38 -6 c-34 -6 -38 -4 -33 12 16 54 26 111 35 203 1 3 17 -20 37 -50 20 -30
46 -65 57 -77z m366 -539 c22 -60 48 -133 60 -161 l21 -53 -45 0 -44 0 -5 48
c-3 26 -13 94 -21 152 -24 169 -22 170 34 14z m-288 -166 c18 -21 31 -40 28
-42 -4 -4 -164 56 -168 64 -4 6 10 112 16 123 2 4 24 -19 48 -50 25 -32 59
-75 76 -95z m-2183 18 c-2 -2 -15 -6 -29 -10 -32 -7 -39 5 -39 72 l0 47 36
-53 c20 -30 34 -55 32 -56z m1650 -153 c-6 -21 -16 -54 -24 -73 -7 -19 -34
-107 -59 -195 -42 -147 -47 -174 -57 -336 -10 -169 -3 -355 12 -284 l6 30 18
-27 c13 -20 16 -37 11 -66 -9 -52 -61 -141 -89 -152 -13 -5 -27 -13 -30 -19
-5 -7 -15 -7 -33 0 -14 5 -41 7 -59 3 -31 -6 -34 -4 -35 17 -1 20 -3 18 -13
-11 -6 -19 -16 -44 -22 -55 -6 -11 -14 -39 -18 -62 -10 -66 -25 -89 -76 -117
-63 -34 -123 -35 -145 -3 -19 29 -56 47 -96 47 -22 0 -41 -10 -66 -35 -42 -42
-70 -44 -147 -13 -53 22 -56 25 -100 113 -25 49 -48 102 -52 118 -3 15 -10 30
-15 33 -20 12 -7 -28 41 -125 l50 -102 -41 23 c-23 13 -45 32 -49 44 -5 11
-19 28 -33 36 -22 16 -24 24 -31 143 -3 69 -3 206 0 305 l7 179 18 -37 c61
-124 99 -259 99 -349 0 -29 4 -53 9 -53 15 0 41 114 41 181 -1 84 -30 214 -73
323 l-35 89 31 -39 c97 -120 325 -328 372 -340 14 -3 36 -3 50 0 56 14 301
256 418 412 71 94 108 165 164 309 36 93 51 125 58 125 2 0 -1 -17 -7 -37z
m-1098 -467 c-1 -17 -2 -18 -9 -6 -5 8 -12 26 -15 40 -7 24 -6 24 8 6 9 -11
16 -29 16 -40z m48 -118 c34 -102 56 -212 49 -249 -4 -20 -5 -19 -6 6 -2 36
-30 151 -64 258 -35 109 -17 96 21 -15z m1222 -585 c45 -70 170 -426 170 -484
0 -29 -24 -36 -185 -53 -251 -26 -343 -29 -797 -21 -392 7 -438 9 -442 24 -2
9 -7 31 -11 48 l-7 33 146 0 146 0 47 -33 c27 -19 56 -37 65 -40 24 -9 89 16
144 54 l46 31 258 -7 c198 -6 270 -4 309 6 27 7 48 16 45 20 -2 4 -19 3 -37
-2 -37 -10 -279 -12 -454 -3 l-119 7 37 86 c20 47 43 105 50 129 16 56 57 81
91 57 33 -23 82 -19 115 9 25 21 28 31 29 86 0 33 6 66 12 72 7 7 12 17 12 24
0 6 15 37 34 68 19 32 37 75 41 97 l7 40 111 -103 c61 -57 122 -122 137 -145z
m-421 20 c8 -14 10 -15 11 -3 0 9 6 7 16 -9 13 -18 14 -25 4 -34 -9 -9 -11 -7
-8 8 2 16 -2 19 -22 17 -14 -2 -22 -1 -18 4 4 4 3 13 -3 21 -8 9 -8 13 -1 13
6 0 16 -8 21 -17z m-31 -10 c2 -8 -5 -13 -16 -13 -23 0 -57 -46 -42 -55 6 -3
10 -11 10 -16 0 -6 -5 -7 -12 -3 -7 4 -8 3 -4 -5 4 -6 20 -18 36 -26 46 -24
107 6 94 47 -2 9 0 19 6 23 15 9 12 -47 -5 -68 -15 -21 -95 -36 -95 -18 0 6
-6 11 -14 11 -19 0 -32 19 -39 58 -6 27 -2 38 18 58 26 26 55 29 63 7z m-784
-131 c11 -11 36 -27 53 -36 18 -9 40 -31 49 -49 9 -17 45 -76 80 -129 l63 -98
-143 0 -143 0 -11 73 c-7 39 -14 101 -18 137 -3 36 -7 80 -9 98 -3 32 -2 33
27 28 17 -2 40 -13 52 -24z m361 -52 c3 -5 2 -10 -4 -10 -5 0 -13 5 -16 10 -3
6 -2 10 4 10 5 0 13 -4 16 -10z m40 0 c-3 -5 -12 -10 -18 -10 -7 0 -6 4 3 10
19 12 23 12 15 0z m-69 -12 c4 -7 4 -10 -1 -6 -4 4 -16 -3 -26 -15 -17 -20
-18 -20 -12 -2 5 16 21 34 30 35 1 0 5 -6 9 -12z m288 -34 c-38 -93 -67 -151
-90 -181 -27 -36 -44 -42 -44 -17 0 11 -14 3 -46 -24 l-46 -39 -36 21 c-75 45
-242 222 -242 256 0 14 71 -13 81 -31 5 -10 22 -20 39 -24 16 -4 30 -13 30
-20 0 -31 45 -67 91 -72 38 -4 50 -1 77 22 18 15 32 35 32 45 0 12 10 21 30
25 16 4 33 12 37 19 8 12 96 66 101 62 1 -2 -5 -20 -14 -42z m-280 -103 c-2
-3 -12 3 -22 13 -16 17 -16 18 5 5 12 -7 20 -15 17 -18z"/>
<path d="M2397 3724 c3 -9 8 -11 12 -6 3 6 17 12 31 15 19 3 16 5 -12 6 -30 1
-36 -2 -31 -15z"/>
<path d="M2328 3723 c7 -3 16 -2 19 1 4 3 -2 6 -13 5 -11 0 -14 -3 -6 -6z"/>
<path d="M2350 3645 c0 -8 5 -15 10 -15 6 0 10 7 10 15 0 8 -4 15 -10 15 -5 0
-10 -7 -10 -15z"/>
<path d="M2375 3629 c-12 -18 3 -22 20 -5 14 14 14 16 1 16 -8 0 -18 -5 -21
-11z"/>
<path d="M1875 3590 c-3 -5 -1 -10 4 -10 6 0 11 5 11 10 0 6 -2 10 -4 10 -3 0
-8 -4 -11 -10z"/>
<path d="M2438 3583 c7 -3 16 -2 19 1 4 3 -2 6 -13 5 -11 0 -14 -3 -6 -6z"/>
<path d="M2518 3583 c7 -3 16 -2 19 1 4 3 -2 6 -13 5 -11 0 -14 -3 -6 -6z"/>
<path d="M2460 3431 c0 -6 5 -13 10 -16 6 -3 10 1 10 9 0 9 -4 16 -10 16 -5 0
-10 -4 -10 -9z"/>
<path d="M2015 3390 c-3 -5 -1 -10 4 -10 6 0 11 5 11 10 0 6 -2 10 -4 10 -3 0
-8 -4 -11 -10z"/>
<path d="M2076 3344 c-10 -26 -7 -34 14 -34 11 0 20 5 20 10 0 6 -7 10 -15 10
-9 0 -12 6 -9 15 4 8 4 15 1 15 -3 0 -8 -7 -11 -16z"/>
<path d="M2480 3344 c0 -8 5 -12 10 -9 6 4 8 11 5 16 -9 14 -15 11 -15 -7z"/>
<path d="M2015 3334 c-21 -15 -20 -15 13 -19 13 -1 22 3 22 11 0 20 -13 23
-35 8z"/>
<path d="M1960 3302 c0 -17 -10 -21 -70 -27 -45 -5 -70 -11 -70 -19 0 -10 15
-11 58 -5 60 8 480 18 747 19 117 0 156 3 148 11 -8 8 -106 12 -312 13 -165 0
-293 4 -283 8 14 5 14 7 2 7 -9 1 -20 -3 -25 -8 -16 -15 -184 -20 -178 -5 2 7
0 15 -6 19 -7 3 -11 -2 -11 -13z"/>
<path d="M2138 3243 c6 -2 18 -2 25 0 6 3 1 5 -13 5 -14 0 -19 -2 -12 -5z"/>
<path d="M2665 3058 c-44 -11 -89 -21 -101 -23 -26 -6 -84 -45 -98 -67 -18
-29 3 -33 25 -4 28 36 61 51 152 70 43 8 90 22 105 30 34 19 17 18 -83 -6z"/>
<path d="M1940 2951 c0 -10 30 -24 37 -17 3 2 -5 9 -16 16 -12 6 -21 7 -21 1z"/>
<path d="M2010 2905 c0 -4 16 -26 35 -49 19 -23 39 -53 44 -67 l10 -24 0 23
c1 37 -26 86 -59 106 -17 9 -30 14 -30 11z"/>
<path d="M2378 2845 c-14 -32 1 -50 83 -99 33 -19 90 -60 128 -91 37 -30 71
-55 75 -55 13 0 -127 119 -196 167 -62 43 -68 51 -64 76 7 34 -11 36 -26 2z"/>
<path d="M2236 2258 c-25 -36 -19 -40 24 -18 41 21 45 40 10 40 -10 0 -26 -10
-34 -22z"/>
<path d="M2085 2259 c-9 -14 -2 -20 40 -35 28 -9 35 -9 35 1 0 31 -61 58 -75
34z"/>
<path d="M2165 2040 c-77 -6 -129 -24 -180 -64 -30 -23 -4 -19 57 9 46 22 67
25 163 25 99 -1 117 -3 179 -30 38 -16 71 -28 73 -26 12 12 -157 97 -189 94
-13 0 -59 -4 -103 -8z"/>
<path d="M2105 1867 c-28 -11 -26 -12 40 -17 82 -6 185 -1 185 10 0 21 -174
27 -225 7z"/>
<path d="M296 3918 c-2 -13 -4 -33 -4 -45 -1 -21 0 -21 19 -2 23 23 26 69 4
69 -8 0 -17 -10 -19 -22z"/>
<path d="M200 3915 c-11 -13 -10 -14 4 -9 9 3 16 10 16 15 0 13 -6 11 -20 -6z"/>
<path d="M410 3900 c0 -16 3 -30 8 -30 4 0 7 14 7 30 1 17 -3 30 -7 30 -4 0
-8 -13 -8 -30z"/>
<path d="M22 3876 c-1 -19 5 -39 14 -46 21 -18 27 -7 19 39 -8 50 -31 55 -33
7z"/>
<path d="M196 3876 c-16 -16 -17 -18 -3 -13 9 3 17 2 17 -3 0 -18 28 -10 33 9
7 27 -23 32 -47 7z"/>
<path d="M317 3858 c6 -11 31 -10 37 1 3 5 -5 8 -18 7 -13 0 -22 -4 -19 -8z"/>
<path d="M305 3790 c-19 -8 -19 -9 2 -9 12 -1 25 4 28 9 7 12 -2 12 -30 0z"/>
<path d="M493 3773 c-21 -8 -15 -22 7 -16 11 3 28 -1 37 -8 14 -12 16 -12 12
0 -6 16 -38 30 -56 24z"/>
<path d="M13 3754 c-7 -3 -13 -10 -13 -15 0 -6 9 -5 21 1 15 9 24 8 36 -2 14
-11 15 -11 11 2 -5 16 -34 23 -55 14z"/>
<path d="M180 3744 c0 -8 5 -12 10 -9 6 3 10 10 10 16 0 5 -4 9 -10 9 -5 0
-10 -7 -10 -16z"/>
<path d="M220 3745 c-11 -13 -10 -14 4 -9 9 3 16 10 16 15 0 13 -6 11 -20 -6z"/>
<path d="M320 3659 c0 -5 5 -7 10 -4 6 3 10 8 10 11 0 2 -4 4 -10 4 -5 0 -10
-5 -10 -11z"/>
<path d="M390 3649 c0 -5 5 -7 10 -4 6 3 10 8 10 11 0 2 -4 4 -10 4 -5 0 -10
-5 -10 -11z"/>
<path d="M491 3653 c0 -5 4 -17 9 -28 8 -18 9 -17 9 8 1 15 -3 27 -9 27 -5 0
-10 -3 -9 -7z"/>
<path d="M37 3643 c-3 -5 -1 -17 4 -28 7 -17 8 -17 8 8 1 27 -4 34 -12 20z"/>
<path d="M301 3536 c-9 -11 -9 -15 0 -18 9 -3 9 -9 0 -27 -7 -12 -10 -26 -6
-29 3 -3 8 4 12 16 3 12 10 22 16 22 8 0 8 3 0 11 -6 6 -9 18 -6 25 7 18 -1
18 -16 0z"/>
<path d="M403 3536 c3 -7 0 -19 -6 -25 -7 -7 -7 -11 -1 -11 6 0 19 8 28 19 15
17 15 19 1 25 -24 9 -28 8 -22 -8z"/>
<path d="M227 3533 c-4 -3 -7 -11 -7 -17 0 -6 5 -5 12 2 6 6 9 14 7 17 -3 3
-9 2 -12 -2z"/>
<path d="M15 3507 c-5 -7 -11 -28 -12 -47 l-2 -35 19 23 c11 14 24 20 31 16 8
-4 9 -3 5 4 -4 7 -14 12 -22 12 -12 0 -12 4 -4 20 12 22 1 27 -15 7z"/>
<path d="M420 3489 c0 -6 -7 -8 -17 -4 -14 5 -15 3 -6 -6 6 -6 19 -9 27 -6 18
7 22 27 6 27 -5 0 -10 -5 -10 -11z"/>
<path d="M322 3385 c0 -16 2 -22 5 -12 2 9 2 23 0 30 -3 6 -5 -1 -5 -18z"/>
<path d="M395 3400 c-3 -5 -1 -10 4 -10 6 0 11 5 11 10 0 6 -2 10 -4 10 -3 0
-8 -4 -11 -10z"/>
<path d="M10 3360 c0 -6 4 -9 9 -5 5 3 12 -2 14 -10 4 -12 5 -12 3 1 -1 19
-26 32 -26 14z"/>
<path d="M476 3241 c-3 -4 6 -6 19 -3 14 2 33 -2 43 -9 15 -13 16 -12 3 4 -14
18 -56 23 -65 8z"/>
<path d="M235 3220 c3 -5 11 -10 16 -10 6 0 7 5 4 10 -3 6 -11 10 -16 10 -6 0
-7 -4 -4 -10z"/>
<path d="M200 3209 c0 -5 5 -7 10 -4 6 3 10 8 10 11 0 2 -4 4 -10 4 -5 0 -10
-5 -10 -11z"/>
<path d="M25 3190 c3 -5 8 -10 11 -10 2 0 4 5 4 10 0 6 -5 10 -11 10 -5 0 -7
-4 -4 -10z"/>
<path d="M204 3125 c-10 -8 -14 -14 -9 -14 6 0 19 6 29 14 11 8 15 15 10 15
-6 0 -19 -7 -30 -15z"/>
<path d="M290 3128 c0 -7 5 -20 11 -28 9 -12 10 -12 5 4 -4 11 -1 23 6 28 10
6 8 8 -4 8 -10 0 -18 -6 -18 -12z"/>
<path d="M496 3115 c4 -8 8 -15 10 -15 2 0 4 7 4 15 0 8 -4 15 -10 15 -5 0 -7
-7 -4 -15z"/>
<path d="M20 3094 c0 -8 5 -12 10 -9 6 3 10 10 10 16 0 5 -4 9 -10 9 -5 0 -10
-7 -10 -16z"/>
<path d="M206 2986 c3 -9 11 -16 16 -16 13 0 5 23 -10 28 -7 2 -10 -2 -6 -12z"/>
<path d="M195 2829 c-4 -6 -5 -12 -2 -15 2 -3 7 2 10 11 7 17 1 20 -8 4z"/>
</g>
</svg>
